<svg width="10" height="10" viewBox="0 0 10 10" fill="none" xmlns="http://www.w3.org/2000/svg">
<path fill-rule="evenodd" clip-rule="evenodd" d="M4.99999 9.58333C2.46868 9.58333 0.416656 7.5313 0.416656 5C0.416656 2.46869 2.46868 0.416664 4.99999 0.416664C7.53129 0.416664 9.58332 2.46869 9.58332 5C9.58332 7.5313 7.53129 9.58333 4.99999 9.58333ZM4.99999 8.75C7.07106 8.75 8.74999 7.07107 8.74999 5C8.74999 2.92893 7.07106 1.25 4.99999 1.25C2.92892 1.25 1.24999 2.92893 1.24999 5C1.24999 7.07107 2.92892 8.75 4.99999 8.75ZM7.08332 4.58333H5.41666V2.5H4.58332V5.41666H7.08332V4.58333Z" fill="#828487"/>
</svg>
