<svg width="14" height="14" viewBox="0 0 14 14" fill="none" xmlns="http://www.w3.org/2000/svg">
<path d="M7.4375 9.28655H7.81667C8.19583 9.28655 8.51083 8.94822 8.51083 8.53989C8.51083 8.03239 8.33 7.93322 8.0325 7.82822L7.44333 7.62405V9.28655H7.4375Z" fill="#4FBF67"/>
<path d="M6.98253 1.10829C3.76253 1.11995 1.15503 3.73912 1.1667 6.95912C1.17836 10.1791 3.79753 12.7866 7.01753 12.775C10.2375 12.7633 12.845 10.1441 12.8334 6.92412C12.8217 3.70412 10.2025 1.10245 6.98253 1.10829ZM8.31836 6.99995C8.77336 7.15745 9.38586 7.49579 9.38586 8.53995C9.38586 9.43829 8.68003 10.1616 7.8167 10.1616H7.43753V10.5C7.43753 10.7391 7.2392 10.9375 7.00003 10.9375C6.76086 10.9375 6.56253 10.7391 6.56253 10.5V10.1616H6.35253C5.39586 10.1616 4.62003 9.35662 4.62003 8.36495C4.62003 8.12579 4.81836 7.92745 5.05753 7.92745C5.2967 7.92745 5.49503 8.12579 5.49503 8.36495C5.49503 8.87245 5.88003 9.28662 6.35253 9.28662H6.56253V7.31495L5.68169 6.99995C5.2267 6.84245 4.6142 6.50412 4.6142 5.45995C4.6142 4.56162 5.32003 3.83829 6.18336 3.83829H6.56253V3.49995C6.56253 3.26079 6.76086 3.06245 7.00003 3.06245C7.2392 3.06245 7.43753 3.26079 7.43753 3.49995V3.83829H7.64753C8.6042 3.83829 9.38003 4.64329 9.38003 5.63495C9.38003 5.87412 9.18169 6.07245 8.94253 6.07245C8.70336 6.07245 8.50503 5.87412 8.50503 5.63495C8.50503 5.12745 8.12003 4.71329 7.64753 4.71329H7.43753V6.68495L8.31836 6.99995Z" fill="#4FBF67"/>
<path d="M5.49496 5.46588C5.49496 5.97338 5.6758 6.07255 5.9733 6.17755L6.56246 6.38171V4.71338H6.1833C5.80413 4.71338 5.49496 5.05171 5.49496 5.46588Z" fill="#4FBF67"/>
</svg>
