<svg width="32" height="32" viewBox="0 0 32 32" fill="none" xmlns="http://www.w3.org/2000/svg">
<circle opacity="0.2" cx="16" cy="16" r="16" fill="#DE350B"/>
<path fill-rule="evenodd" clip-rule="evenodd" d="M12.1504 11.2073C11.8901 10.9469 11.468 10.9469 11.2076 11.2073C10.9473 11.4676 10.9473 11.8897 11.2076 12.1501L15.0575 15.9999L11.2077 19.8497C10.9473 20.11 10.9473 20.5322 11.2077 20.7925C11.468 21.0528 11.8901 21.0528 12.1505 20.7925L16.0003 16.9427L19.8501 20.7925C20.1104 21.0528 20.5325 21.0528 20.7929 20.7925C21.0532 20.5322 21.0532 20.11 20.7929 19.8497L16.9431 15.9999L20.7929 12.1501C21.0533 11.8897 21.0533 11.4676 20.7929 11.2073C20.5325 10.9469 20.1105 10.9469 19.8501 11.2073L16.0003 15.0571L12.1504 11.2073Z" fill="#DE350B"/>
</svg>
