<svg width="16" height="16" viewBox="0 0 16 16" fill="none" xmlns="http://www.w3.org/2000/svg">
<path d="M8.00004 1.33334C4.32004 1.33334 1.33337 4.32 1.33337 8C1.33337 11.68 4.32004 14.6667 8.00004 14.6667C11.68 14.6667 14.6667 11.68 14.6667 8C14.6667 4.32 11.68 1.33334 8.00004 1.33334ZM6.00004 5.33334C6.36671 5.33334 6.66671 5.63334 6.66671 6C6.66671 6.36667 6.37337 6.66667 6.00004 6.66667C5.63337 6.66667 5.33337 6.36667 5.33337 6C5.33337 5.63334 5.63337 5.33334 6.00004 5.33334ZM6.35337 10.3533C6.25337 10.4533 6.12671 10.5 6.00004 10.5C5.87337 10.5 5.74671 10.4533 5.64671 10.3533C5.45337 10.16 5.45337 9.84 5.64671 9.64667L9.64671 5.64667C9.84004 5.45334 10.16 5.45334 10.3534 5.64667C10.5467 5.84 10.5467 6.16 10.3534 6.35334L6.35337 10.3533ZM10 10.6667C9.62671 10.6667 9.32671 10.3667 9.32671 10C9.32671 9.63334 9.62671 9.33334 9.99337 9.33334C10.36 9.33334 10.66 9.63334 10.66 10C10.66 10.3667 10.3667 10.6667 10 10.6667Z" fill="#FEAD36"/>
</svg>
