<svg width="16" height="16" viewBox="0 0 16 16" fill="none" xmlns="http://www.w3.org/2000/svg">
<path d="M13 2.44667C13 2.44 13 2.43334 12.9867 2.42667C12.84 2.24 12.6467 2.14 12.42 2.14C12.0667 2.14 11.64 2.37334 11.18 2.86667C10.6333 3.45334 9.79333 3.40667 9.31333 2.76667L8.64 1.87334C8.37333 1.51334 8.02 1.33334 7.66667 1.33334C7.31333 1.33334 6.96 1.51334 6.69333 1.87334L6.01333 2.77334C5.54 3.40667 4.70667 3.45334 4.16 2.87334L4.15333 2.86667C3.4 2.06 2.72667 1.94 2.34667 2.42667C2.33333 2.43334 2.33333 2.44 2.33333 2.44667C2.09333 2.96 2 3.68 2 4.69334V11.3067C2 12.32 2.09333 13.04 2.33333 13.5533C2.33333 13.56 2.34 13.5733 2.34667 13.58C2.73333 14.06 3.4 13.94 4.15333 13.1333L4.16 13.1267C4.70667 12.5467 5.54 12.5933 6.01333 13.2267L6.69333 14.1267C6.96 14.4867 7.31333 14.6667 7.66667 14.6667C8.02 14.6667 8.37333 14.4867 8.64 14.1267L9.31333 13.2333C9.79333 12.5933 10.6333 12.5467 11.18 13.1333C11.64 13.6267 12.0667 13.86 12.42 13.86C12.6467 13.86 12.84 13.7667 12.9867 13.58C12.9933 13.5733 13 13.56 13 13.5533C13.24 13.04 13.3333 12.32 13.3333 11.3067V4.69334C13.3333 3.68 13.24 2.96 13 2.44667ZM9.33333 9.66667H5.33333C5.06 9.66667 4.83333 9.44 4.83333 9.16667C4.83333 8.89334 5.06 8.66667 5.33333 8.66667H9.33333C9.60667 8.66667 9.83333 8.89334 9.83333 9.16667C9.83333 9.44 9.60667 9.66667 9.33333 9.66667ZM10.6667 7.33334H5.33333C5.06 7.33334 4.83333 7.10667 4.83333 6.83334C4.83333 6.56 5.06 6.33334 5.33333 6.33334H10.6667C10.94 6.33334 11.1667 6.56 11.1667 6.83334C11.1667 7.10667 10.94 7.33334 10.6667 7.33334Z" fill="#1AD492"/>
</svg>
