<svg width="15" height="24" viewBox="0 0 15 24" fill="none" xmlns="http://www.w3.org/2000/svg">
<circle cx="7.5" cy="12.5" r="7.5" fill="#FF0D0D"/>
<path d="M4.58949 16V14.892L7.17827 12.495C7.39844 12.282 7.5831 12.0902 7.73224 11.9197C7.88376 11.7493 7.99858 11.5824 8.0767 11.419C8.15483 11.2533 8.19389 11.0746 8.19389 10.8828C8.19389 10.6697 8.14536 10.4863 8.0483 10.3324C7.95123 10.1761 7.81866 10.0566 7.65057 9.97372C7.48248 9.88849 7.2919 9.84588 7.07884 9.84588C6.8563 9.84588 6.66217 9.89086 6.49645 9.98082C6.33073 10.0708 6.20289 10.1998 6.11293 10.3679C6.02296 10.536 5.97798 10.736 5.97798 10.968H4.51847C4.51847 10.4922 4.62618 10.0791 4.84162 9.72869C5.05705 9.37831 5.3589 9.10724 5.74716 8.91548C6.13542 8.72372 6.58286 8.62784 7.08949 8.62784C7.61032 8.62784 8.06368 8.72017 8.44957 8.90483C8.83783 9.08712 9.13968 9.34044 9.35511 9.66477C9.57055 9.98911 9.67827 10.3608 9.67827 10.7798C9.67827 11.0545 9.62382 11.3255 9.51491 11.593C9.40838 11.8606 9.2178 12.1577 8.94318 12.4844C8.66856 12.8087 8.28149 13.1982 7.78196 13.6527L6.72017 14.6932V14.7429H9.77415V16H4.58949Z" fill="white"/>
</svg>
