<svg width="15" height="11" viewBox="0 0 15 11" fill="none" xmlns="http://www.w3.org/2000/svg">
<path d="M7.4244 0.146729C4.09106 0.146729 1.2444 2.22006 0.0910645 5.14673C1.2444 8.0734 4.09106 10.1467 7.4244 10.1467C10.7577 10.1467 13.6044 8.0734 14.7577 5.14673C13.6044 2.22006 10.7577 0.146729 7.4244 0.146729ZM7.4244 8.48006C5.5844 8.48006 4.09106 6.98673 4.09106 5.14673C4.09106 3.30673 5.5844 1.8134 7.4244 1.8134C9.2644 1.8134 10.7577 3.30673 10.7577 5.14673C10.7577 6.98673 9.2644 8.48006 7.4244 8.48006ZM7.4244 3.14673C6.31773 3.14673 5.4244 4.04006 5.4244 5.14673C5.4244 6.2534 6.31773 7.14673 7.4244 7.14673C8.53106 7.14673 9.4244 6.2534 9.4244 5.14673C9.4244 4.04006 8.53106 3.14673 7.4244 3.14673Z" fill="#84818A"/>
</svg>
