<svg width="52" height="17" viewBox="0 0 52 17" fill="none" xmlns="http://www.w3.org/2000/svg">
<path d="M40.705 3.54084C40.9201 3.36876 41.0276 3.28273 41.1352 3.19669C42.6301 1.92764 44.5444 2.06745 45.8242 3.5731C45.9533 3.72367 46.0178 3.73442 46.1468 3.60537C46.2329 3.50857 46.3297 3.43329 46.4157 3.3365C47.4159 2.35782 48.7387 2.06745 49.9755 2.61594C51.2768 3.19669 51.9759 4.21838 51.9866 5.64875C52.0081 8.73534 51.9974 11.8112 51.9974 14.8978C51.9974 15.9947 51.3198 16.683 50.2336 16.683C49.8034 16.683 49.3732 16.6508 48.9431 16.6938C48.5021 16.7368 48.3731 16.597 48.3731 16.1346C48.3946 13.1233 48.3838 10.1119 48.3838 7.10063C48.3838 6.97158 48.3838 6.85328 48.3838 6.72422C48.3731 6.02517 48.0934 5.73479 47.4267 5.70253C46.8244 5.67026 46.405 6.03592 46.3404 6.64894C46.3297 6.78875 46.3404 6.93931 46.3404 7.07913C46.3404 9.68176 46.3404 12.2736 46.3404 14.8763C46.3404 16.0163 45.6844 16.683 44.5444 16.6723C43.9636 16.6615 43.1786 16.9304 42.8452 16.554C42.5548 16.2314 42.7484 15.4678 42.7484 14.8978C42.7484 12.2306 42.7484 9.5527 42.7484 6.88554C42.7484 5.93913 42.1354 5.45517 41.3395 5.77781C40.8448 5.98215 40.6835 6.38007 40.6835 6.8963C40.6942 9.39138 40.6835 11.8757 40.6835 14.3708C40.6835 14.5644 40.6835 14.7687 40.6835 14.9623C40.6512 16.0055 39.9844 16.6615 38.952 16.6723C38.5218 16.683 38.0916 16.64 37.6614 16.683C37.199 16.7261 37.0591 16.597 37.0699 16.1023C37.0914 11.8757 37.0807 7.64912 37.0807 3.41178C37.0807 3.22895 37.0914 3.05688 37.0807 2.87405C37.0592 2.63744 37.1559 2.56216 37.3925 2.56216C38.382 2.57292 39.3606 2.57292 40.3501 2.56216C40.5974 2.56216 40.7157 2.62669 40.6942 2.89556C40.6727 3.08914 40.6942 3.26122 40.705 3.54084Z" fill="white"/>
<path d="M17.9048 9.36986C17.9048 10.8433 17.9048 12.3059 17.9048 13.7793C17.894 15.6936 16.8938 16.683 14.9795 16.6938C14.1406 16.6938 13.291 16.7046 12.4522 16.6938C10.7529 16.6723 9.50538 15.543 9.41934 13.8438C9.35481 12.6285 9.34406 11.4025 9.40859 10.1872C9.49463 8.44496 10.8282 7.21893 12.592 7.19742C13.0544 7.18667 13.5276 7.19742 13.9901 7.19742C14.4418 7.18667 14.6138 6.92855 14.6031 6.49837C14.6031 6.06818 14.4095 5.8746 13.9793 5.89611C13.4954 5.90686 13.0114 5.90686 12.5274 5.89611C11.3444 5.8746 10.6884 5.22932 10.6991 4.06781C10.6991 3.59461 10.4841 2.96008 10.7959 2.68046C11.0648 2.44385 11.6778 2.59442 12.1403 2.59442C13.3448 2.58367 14.5386 2.59442 15.7431 2.59442C17.0229 2.59442 17.894 3.46555 17.9048 4.75611C17.9155 6.28327 17.9048 7.83195 17.9048 9.36986ZM14.6138 11.8112C14.6138 11.6283 14.6138 11.4563 14.6138 11.2734C14.6138 10.1765 14.6138 10.1765 13.5169 10.2195C12.9684 10.241 12.6673 10.5206 12.6565 11.0906C12.6457 11.5423 12.6457 11.9833 12.6565 12.4349C12.6673 13.2093 13.0114 13.4136 14.1299 13.4459C14.958 13.4674 14.5386 12.8866 14.6138 12.564C14.6569 12.3274 14.6031 12.0585 14.6138 11.8112Z" fill="white"/>
<path d="M27.4763 8.1976C27.4763 9.84307 27.4978 11.4993 27.4655 13.1448C27.444 14.4138 27.1429 15.5646 25.9168 16.2421C25.4221 16.511 24.8844 16.6615 24.3251 16.6723C23.0884 16.6938 21.8516 16.6723 20.6148 16.6938C20.3137 16.6938 20.2491 16.5863 20.2599 16.3174C20.2814 15.8657 20.2491 15.4247 20.2706 14.973C20.2921 14.1127 20.9482 13.4566 21.8086 13.4244C22.3678 13.4029 22.9163 13.4136 23.4755 13.4244C23.9272 13.4244 24.1746 13.2415 24.1746 12.7576C24.1746 12.2629 23.938 12.0908 23.4863 12.08C22.7335 12.0585 21.9806 12.1661 21.2386 11.951C19.9587 11.5746 19.0231 10.5099 18.9908 9.18703C18.9263 7.08987 18.9693 4.99271 18.9586 2.89555C18.9586 2.65895 19.0338 2.58367 19.2704 2.59442C20.1523 2.60518 21.0235 2.61593 21.9053 2.59442C22.2925 2.58367 22.2387 2.79876 22.2387 3.03536C22.2387 4.6163 22.2387 6.18648 22.2387 7.76742C22.2387 8.45572 22.5614 8.82137 23.1636 8.84288C23.8734 8.86439 24.1853 8.57402 24.1853 7.85345C24.1853 6.26176 24.1961 4.65932 24.1746 3.06763C24.1746 2.69121 24.2714 2.58367 24.6478 2.59442C25.4329 2.62668 26.2287 2.63744 27.0138 2.59442C27.444 2.57291 27.5085 2.73423 27.4978 3.11064C27.4655 4.79913 27.4763 6.49837 27.4763 8.1976Z" fill="white"/>
<path d="M0.0736213 10.6389C0.0736213 8.88589 0.0736213 7.12213 0.0736213 5.36912C0.0736213 3.64837 1.12758 2.5729 2.85908 2.59441C3.98832 2.60517 5.11756 2.46535 6.23605 2.68045C7.66642 2.96007 8.56981 4.0678 8.58057 5.54119C8.59132 7.10062 8.58057 8.66005 8.58057 10.2195C8.58057 12.1768 7.42982 13.3706 5.47247 13.4244C4.88096 13.4459 4.28945 13.4351 3.69795 13.4244C3.42908 13.4136 3.31078 13.4997 3.32153 13.79C3.34304 14.2202 3.33229 14.6504 3.32153 15.0806C3.30002 16.0055 2.64399 16.6723 1.72984 16.683C1.19211 16.6938 0.514563 16.9089 0.170413 16.597C-0.152227 16.3066 0.084376 15.6183 0.0736213 15.1021C0.0628666 13.618 0.0736213 12.1231 0.0736213 10.6389ZM3.32153 8.00401C3.32153 8.34816 3.32153 8.68156 3.32153 9.0257C3.32153 10.241 3.32153 10.241 4.53681 10.1334C5.06379 10.0904 5.31115 9.83231 5.3219 9.30533C5.33266 8.70307 5.30039 8.09005 5.33266 7.48779C5.39718 5.74553 5.07454 5.9176 3.65493 5.90685C3.39682 5.90685 3.31078 5.98213 3.31078 6.24025C3.33229 6.821 3.32153 7.4125 3.32153 8.00401Z" fill="white"/>
<path d="M30.5201 10.6604C30.5201 9.23006 30.5093 7.78893 30.5308 6.35856C30.5308 6.02516 30.4555 5.88535 30.0899 5.89611C29.6059 5.91762 28.9606 6.05743 28.6918 5.82083C28.3584 5.50894 28.6165 4.84215 28.5735 4.32592C28.5735 4.29366 28.5735 4.25064 28.5735 4.21838C28.5735 3.71291 28.4121 3.1214 28.6272 2.74499C28.8423 2.36857 29.4984 2.60518 29.9608 2.48688C30.875 2.25027 31.5633 1.72329 32.1225 0.991975C32.5097 0.49726 32.9936 0.142356 33.6174 0.0240548C33.9508 -0.0404733 34.1551 0.00254576 34.1336 0.432733C34.1014 1.03499 34.1336 1.64801 34.1229 2.26103C34.1121 2.51914 34.2089 2.60518 34.467 2.59442C34.8972 2.58367 35.3274 2.60518 35.7576 2.58367C36.0157 2.57291 36.1017 2.6697 36.091 2.92782C36.0802 3.8097 36.0802 4.68083 36.091 5.56271C36.091 5.81007 36.0264 5.93913 35.7576 5.90686C35.7038 5.89611 35.65 5.90686 35.5963 5.90686C35.1231 5.94988 34.467 5.69177 34.2197 6.01441C33.9831 6.31554 34.1336 6.93931 34.1336 7.42327C34.1336 10.3485 34.1229 13.2631 34.1444 16.1883C34.1444 16.597 34.0368 16.7261 33.6282 16.6938C33.241 16.6615 32.8431 16.6938 32.4451 16.683C31.2836 16.64 30.5201 15.8549 30.5201 14.6934C30.5201 13.3491 30.5201 12.0048 30.5201 10.6604Z" fill="white"/>
</svg>
