<svg width="94" height="19" viewBox="0 0 94 19" fill="none" xmlns="http://www.w3.org/2000/svg">
<g clip-path="url(#clip0_43_681)">
<g filter="url(#filter0_d_43_681)">
<path fill-rule="evenodd" clip-rule="evenodd" d="M22.4055 7.17801C22.2572 7.7066 21.9699 8.09456 21.5435 8.34227C21.1166 8.58993 20.5178 8.71402 19.7455 8.71402H17.2918L18.1532 5.64223H20.6069C21.3786 5.64223 21.9084 5.76608 22.1963 6.01375C22.4836 6.2617 22.5537 6.6497 22.4055 7.17801ZM24.9465 7.11181C25.2585 6.00029 25.1292 5.1469 24.5586 4.55241C23.988 3.95791 22.9882 3.66083 21.5602 3.66083H16.0828L12.7861 15.4181H15.4472L16.7764 10.6787H18.5215C18.9128 10.6787 19.2209 10.7394 19.4462 10.8605C19.6719 10.9818 19.8041 11.1966 19.8449 11.5044L20.3196 15.4181H23.1709L22.7083 11.7689C22.614 10.9541 22.2239 10.4752 21.5383 10.3322C22.4124 10.0903 23.1444 9.688 23.734 9.12648C24.323 8.56524 24.7276 7.89385 24.9465 7.11181Z" fill="white"/>
<path fill-rule="evenodd" clip-rule="evenodd" d="M31.4139 11.2073C31.1916 11.9997 30.849 12.6055 30.3865 13.0237C29.9234 13.4421 29.3694 13.6511 28.7247 13.6511C28.0672 13.6511 27.6213 13.4449 27.3863 13.0319C27.1501 12.6192 27.1421 12.0222 27.3616 11.2402C27.5805 10.4588 27.9299 9.84782 28.4109 9.40707C28.8912 8.96718 29.4538 8.74672 30.0991 8.74672C30.7439 8.74672 31.1806 8.95899 31.407 9.38267C31.6335 9.80636 31.6363 10.4145 31.4139 11.2073ZM32.5804 7.04591L32.2471 8.2349C32.1029 7.80544 31.8242 7.46438 31.4116 7.21122C30.9985 6.95806 30.4865 6.83118 29.8762 6.83118C29.1274 6.83118 28.4074 7.01573 27.7167 7.3845C27.026 7.75351 26.422 8.27361 25.9055 8.94496C25.3889 9.61659 25.0102 10.3816 24.7694 11.2402C24.5287 12.0991 24.4804 12.8559 24.6252 13.5108C24.77 14.166 25.0837 14.6695 25.567 15.0218C26.0497 15.3744 26.6715 15.5501 27.4317 15.5501C28.042 15.5501 28.6235 15.4291 29.1752 15.1869C29.7268 14.945 30.1951 14.6089 30.5807 14.1797L30.2331 15.4181H32.8074L35.1548 7.04591H32.5804Z" fill="white"/>
<path fill-rule="evenodd" clip-rule="evenodd" d="M44.4116 7.04593H36.9299L36.4069 8.91205H40.7609L35.0043 13.6676L34.5129 15.4181H42.2366L42.7601 13.5523H38.0953L43.9393 8.73025L44.4116 7.04593Z" fill="white"/>
<path fill-rule="evenodd" clip-rule="evenodd" d="M50.9985 11.1908C50.7669 12.0162 50.4238 12.6332 49.9699 13.0405C49.5159 13.4477 48.9666 13.6511 48.3219 13.6511C46.9737 13.6511 46.5301 12.8315 46.9899 11.1908C47.2186 10.3761 47.5633 9.76241 48.0242 9.34971C48.4856 8.93673 49.0442 8.73025 49.701 8.73025C50.3457 8.73025 50.7807 8.93673 51.0048 9.34971C51.2289 9.76241 51.2272 10.3761 50.9985 11.1908ZM52.5046 7.3595C51.9121 7.00745 51.1553 6.83119 50.2336 6.83119C49.3004 6.83119 48.4362 7.00745 47.6404 7.3595C46.8445 7.71206 46.167 8.21843 45.6079 8.87879C45.0481 9.53943 44.6448 10.3099 44.3977 11.1908C44.1506 12.0717 44.1219 12.8419 44.3115 13.5026C44.5006 14.1632 44.8936 14.6696 45.4924 15.0219C46.0906 15.3744 46.8559 15.5502 47.7892 15.5502C48.7108 15.5502 49.5665 15.3744 50.3566 15.0219C51.1456 14.6696 51.8208 14.1632 52.3804 13.5026C52.9395 12.8419 53.343 12.0717 53.5901 11.1908C53.8371 10.3099 53.8659 9.53943 53.6768 8.87879C53.4872 8.21843 53.0964 7.71206 52.5046 7.3595Z" fill="white"/>
<path fill-rule="evenodd" clip-rule="evenodd" d="M79.4308 11.2073C79.2084 11.9997 78.8659 12.6055 78.4033 13.0237C77.9407 13.4421 77.3856 13.6511 76.7409 13.6511C76.0847 13.6511 75.6382 13.4449 75.4031 13.0319C75.1669 12.6192 75.1589 12.0222 75.3784 11.2402C75.5974 10.4588 75.9468 9.84782 76.4277 9.40707C76.9081 8.96718 77.4707 8.74672 78.1159 8.74672C78.7607 8.74672 79.1974 8.95899 79.4238 9.38267C79.6503 9.80636 79.6531 10.4145 79.4308 11.2073ZM80.5972 7.04591L80.264 8.2349C80.1197 7.80544 79.841 7.46438 79.4284 7.21122C79.0153 6.95806 78.5033 6.83118 77.893 6.83118C77.1443 6.83118 76.4242 7.01573 75.7336 7.3845C75.0429 7.75351 74.4389 8.27361 73.9223 8.94496C73.4057 9.61659 73.027 10.3816 72.7863 11.2402C72.5455 12.0991 72.4978 12.8559 72.642 13.5108C72.7868 14.166 73.1 14.6695 73.5838 15.0218C74.0666 15.3744 74.6883 15.5501 75.4485 15.5501C76.0588 15.5501 76.6404 15.4291 77.192 15.1869C77.7436 14.945 78.2119 14.6089 78.5975 14.1797L78.2499 15.4181H80.8242L83.1716 7.04591H80.5972Z" fill="white"/>
<path fill-rule="evenodd" clip-rule="evenodd" d="M61.6833 9.29178L62.3395 7.01297C62.1165 6.90285 61.8211 6.8477 61.4528 6.8477C60.865 6.8477 60.2989 6.988 59.7536 7.26888C59.2853 7.50986 58.8865 7.84811 58.5498 8.27194L58.8911 7.04476L58.1458 7.04595H56.3176L53.9521 15.4181H56.5621L57.7889 11.0423C57.9677 10.4039 58.2883 9.90575 58.7521 9.54797C59.2146 9.1902 59.7921 9.01114 60.4834 9.01114C60.9097 9.01114 61.3091 9.10477 61.6833 9.29178Z" fill="white"/>
<path fill-rule="evenodd" clip-rule="evenodd" d="M68.948 11.2401C68.7285 12.0222 68.3884 12.6191 67.9275 13.0318C67.4655 13.4448 66.9127 13.651 66.268 13.651C65.6226 13.651 65.1831 13.442 64.9492 13.0236C64.7147 12.6054 64.709 11.9999 64.9313 11.2071C65.1537 10.4144 65.4996 9.80621 65.9697 9.38252C66.4397 8.95884 66.9977 8.74657 67.6431 8.74657C68.2763 8.74657 68.7067 8.96708 68.9348 9.40726C69.1624 9.84767 69.167 10.4589 68.948 11.2401ZM70.7719 7.38435C70.2876 7.01558 69.6709 6.83136 68.9228 6.83136C68.266 6.83136 67.6408 6.9744 67.0489 7.26054C66.4553 7.5472 65.9744 7.93739 65.6054 8.433L65.6137 8.37808L66.0522 7.04462H65.5476V7.04581H63.5045L62.8558 9.36097C62.8483 9.38788 62.842 9.41299 62.8345 9.44019L60.1584 18.9849H62.7679L64.1154 14.1799C64.2475 14.6088 64.5222 14.9448 64.9383 15.1868C65.3543 15.4289 65.8674 15.55 66.4783 15.55C67.2385 15.55 67.9614 15.3743 68.648 15.0217C69.3342 14.6697 69.9306 14.1658 70.4364 13.5107C70.9426 12.8561 71.3162 12.099 71.5569 11.2401C71.7977 10.3815 71.8476 9.61649 71.708 8.94486C71.5684 8.27346 71.2558 7.75341 70.7719 7.38435Z" fill="white"/>
<path fill-rule="evenodd" clip-rule="evenodd" d="M93.9772 7.04825L93.9789 7.04593H92.3983C92.3478 7.04593 92.3032 7.0473 92.257 7.04825H91.4367L91.0172 7.60678C90.9836 7.64886 90.95 7.69122 90.9138 7.74035L90.8681 7.80503L87.5344 12.2422L86.8431 7.04593H84.1124L85.4953 14.942L82.4414 18.985H82.5285H84.0877H85.162L85.9021 17.9831C85.9239 17.9532 85.9426 17.9288 85.9659 17.8972L86.8296 16.727L86.8543 16.6935L90.7187 11.4581L93.9746 7.05171L93.9789 7.04825H93.9772Z" fill="white"/>
<path fill-rule="evenodd" clip-rule="evenodd" d="M6.07998 5.00776L5.29883 7.75508L9.76859 4.99231L6.84551 15.4155L9.8139 15.4181L14.1321 0.0228424L6.07998 5.00776Z" fill="#3395FF"/>
<path fill-rule="evenodd" clip-rule="evenodd" d="M1.26893 11.0363L0.0400391 15.4181H6.12456C6.12456 15.4181 8.61328 6.5064 8.61397 6.50385C8.61164 6.50527 1.26893 11.0363 1.26893 11.0363Z" fill="#072654"/>
</g>
</g>
<defs>
<filter id="filter0_d_43_681" x="-3.95996" y="0.0228424" width="101.939" height="26.9622" filterUnits="userSpaceOnUse" color-interpolation-filters="sRGB">
<feFlood flood-opacity="0" result="BackgroundImageFix"/>
<feColorMatrix in="SourceAlpha" type="matrix" values="0 0 0 0 0 0 0 0 0 0 0 0 0 0 0 0 0 0 127 0" result="hardAlpha"/>
<feOffset dy="4"/>
<feGaussianBlur stdDeviation="2"/>
<feComposite in2="hardAlpha" operator="out"/>
<feColorMatrix type="matrix" values="0 0 0 0 0 0 0 0 0 0 0 0 0 0 0 0 0 0 0.25 0"/>
<feBlend mode="normal" in2="BackgroundImageFix" result="effect1_dropShadow_43_681"/>
<feBlend mode="normal" in="SourceGraphic" in2="effect1_dropShadow_43_681" result="shape"/>
</filter>
<clipPath id="clip0_43_681">
<rect width="94" height="19" fill="white"/>
</clipPath>
</defs>
</svg>
