<svg width="14" height="14" viewBox="0 0 14 14" fill="none" xmlns="http://www.w3.org/2000/svg">
<path fill-rule="evenodd" clip-rule="evenodd" d="M3.50001 4.08334C3.17784 4.08334 2.91667 4.34451 2.91667 4.66668V10.5C2.91667 11.4665 3.70017 12.25 4.66667 12.25H9.33334C10.2998 12.25 11.0833 11.4665 11.0833 10.5V4.66668C11.0833 4.34451 10.8222 4.08334 10.5 4.08334H3.50001ZM5.42086 9.74582L6.58753 10.9125C6.81533 11.1403 7.18468 11.1403 7.41248 10.9125L8.57915 9.74582C8.80696 9.51802 8.80696 9.14867 8.57915 8.92086C8.35134 8.69306 7.982 8.69306 7.75419 8.92086L7.58334 9.09172V5.83334C7.58334 5.51118 7.32217 5.25001 7 5.25001C6.67784 5.25001 6.41667 5.51118 6.41667 5.83334V9.09172L6.24582 8.92086C6.01801 8.69306 5.64867 8.69306 5.42086 8.92086C5.19305 9.14867 5.19305 9.51802 5.42086 9.74582Z" fill="#FF5E2F"/>
<path d="M1.75 2.33333C1.75 2.01117 2.01117 1.75 2.33333 1.75H11.6667C11.9888 1.75 12.25 2.01117 12.25 2.33333V2.33333C12.25 2.6555 11.9888 2.91667 11.6667 2.91667H2.33333C2.01117 2.91667 1.75 2.6555 1.75 2.33333V2.33333Z" fill="#FF5E2F"/>
</svg>
