<svg width="14" height="14" viewBox="0 0 14 14" fill="none" xmlns="http://www.w3.org/2000/svg">
<path fill-rule="evenodd" clip-rule="evenodd" d="M9.98047 2.92621C11.1943 3.20787 11.6586 3.91763 12.2407 4.89453H9.98047V2.92621ZM2.8869 4.97656C3.12456 4.97656 3.29706 5.09128 3.29706 5.35938C3.29706 5.58549 3.11409 5.76889 2.88808 5.76953H0.410156C0.183609 5.76953 0 5.95325 0 6.17969C0 6.40623 0.183609 6.58984 0.410156 6.58984H4.10156C4.33025 6.58984 4.51332 6.77335 4.51332 7C4.51332 7.22655 4.32971 7.41016 4.10316 7.41016H0.410156C0.183609 7.41016 0 7.59377 0 7.82031C0 8.04686 0.183609 8.23047 0.410156 8.23047H1.3125V9.46094C1.3125 9.68748 1.49611 9.87109 1.72266 9.87109H2.54713C2.69411 10.5951 3.3338 11.1289 4.08789 11.1289C4.84198 11.1289 5.48167 10.5951 5.62865 9.87109H9.79323C9.9402 10.5951 10.5799 11.1289 11.334 11.1289C12.0881 11.1289 12.7278 10.5951 12.8747 9.87109H13.5898C13.8164 9.87109 14 9.68748 14 9.46094V7C14 5.79655 12.7307 5.71666 12.7295 5.71484H9.57031C9.34377 5.71484 9.16016 5.53123 9.16016 5.30469V2.84375H1.72266C1.49611 2.84375 1.3125 3.02736 1.3125 3.25391V4.15625H0.820312C0.593765 4.15625 0.410156 4.33986 0.410156 4.56641C0.410156 4.79295 0.593765 4.97656 0.820312 4.97656H2.8869ZM11.8657 9.02493C12.1593 9.31856 12.1593 9.79483 11.8657 10.0885C11.3934 10.5608 10.582 10.2247 10.582 9.55664C10.582 8.88864 11.3934 8.55261 11.8657 9.02493ZM4.6196 9.02493C4.91322 9.31856 4.91322 9.79483 4.6196 10.0885C4.14728 10.5608 3.33594 10.2247 3.33594 9.55664C3.33594 8.88864 4.14728 8.55261 4.6196 9.02493Z" fill="#0BAFFF"/>
</svg>
