<svg width="16" height="16" viewBox="0 0 16 16" fill="none" xmlns="http://www.w3.org/2000/svg">
<g clip-path="url(#clip0_21_548)">
<path d="M16 8C16 9.43903 15.6203 10.7892 14.9548 11.9559C14.9058 12.0421 14.8509 12.1342 14.7905 12.2312C13.9425 13.5895 12.6981 14.6753 11.2189 15.326C10.9753 15.4331 10.7252 15.5288 10.4696 15.6114C10.3187 15.6603 10.1659 15.7051 10.0114 15.7449C9.87463 15.7805 9.73619 15.8125 9.59675 15.8406C9.08081 15.9452 8.54694 16 8 16C6.41372 16 4.93584 15.5386 3.69241 14.7422C2.87838 14.2214 2.16522 13.5569 1.58791 12.785C0.590688 11.4504 0 9.79397 0 8C0 3.74956 3.31494 0.273313 7.50041 0.0153437C7.60425 0.0088125 7.70841 0.0045625 7.81322 0.00228125H7.81453C7.87625 0.00065625 7.93797 0 8 0C12.4183 0 16 3.58172 16 8Z" fill="#5C5560"/>
<path d="M14.9548 11.9559C14.9058 12.0421 14.851 12.1342 14.7906 12.2311C13.9426 13.5895 12.6982 14.6752 11.219 15.326C10.9754 15.4331 10.7253 15.5288 10.4696 15.6114C10.3188 15.6603 10.1659 15.7051 10.0115 15.7449L11.0168 1.84584L12.2668 2.9394L13.6105 2.97075L14.9548 11.9559Z" fill="#3E8E33"/>
<path d="M10.4532 2.02875C10.1123 1.14059 9.57158 0.348437 8.6847 0.489812C8.48127 0.220094 8.20111 0.0255 7.81448 0.0023125H7.81317C7.78773 0.00065625 7.76195 0 7.73548 0C7.65645 0 7.57811 0.00521875 7.50039 0.0153437C6.12177 0.195906 4.99295 1.94253 4.56914 3.93894L2.64195 4.56456L1.58789 12.785C2.1652 13.5569 2.87833 14.2214 3.69239 14.7422L9.5967 15.8406C9.89386 15.7805 10.1851 15.7038 10.4695 15.6114L11.0168 1.84584L10.4532 2.02875ZM5.18008 3.74075C5.18008 3.74075 5.45436 2.87706 5.82923 2.09569C6.20442 1.31462 7.42302 0.189406 8.1107 0.611281C8.13127 0.624031 8.1512 0.637719 8.17014 0.652438C7.38058 1.01684 6.76052 1.86875 6.44442 3.33031L5.18008 3.74075ZM8.64814 2.61484L7.09745 3.11803C7.09745 3.11803 7.3933 1.50887 8.48914 1.11378C8.73142 1.73616 8.64814 2.61484 8.64814 2.61484ZM9.21989 2.42906C9.21989 2.42906 9.21989 1.70122 8.9763 1.04228C9.53827 1.10106 9.82658 1.70284 9.96861 2.18613L9.21989 2.42906Z" fill="#7FC029"/>
<path d="M3.88015 11.2869C4.16106 11.4899 4.44209 11.6961 4.76746 11.8292C4.90743 11.8865 5.05024 11.931 5.20018 11.9552C5.4694 11.9986 5.71355 11.9627 5.88483 11.7273C6.06437 11.4805 6.03252 11.2173 5.91312 10.9579C5.83102 10.7797 5.69352 10.6427 5.54796 10.5153C5.35993 10.3508 5.1699 10.1887 4.97896 10.0276C4.35925 9.50482 4.16737 8.82666 4.27653 8.04941C4.46684 6.69432 5.47449 5.72607 6.83736 5.56007C7.42324 5.48869 7.99798 5.49441 8.56414 5.6856C8.69123 5.7285 8.70389 5.78025 8.6633 5.89716C8.48598 6.40763 8.31427 6.92013 8.14814 7.43435C8.11461 7.53816 8.08698 7.55532 7.9808 7.51178C7.5473 7.3341 7.09896 7.2281 6.62596 7.30738C6.29708 7.3625 6.03293 7.50666 5.9404 7.85632C5.87527 8.10244 5.96155 8.30703 6.13658 8.4791C6.37874 8.71719 6.66093 8.90579 6.92839 9.1125C7.25158 9.36235 7.55067 9.63572 7.75974 9.99213C8.13214 10.627 8.1362 11.3047 7.94289 11.9857C7.61592 13.1375 6.62668 13.7591 5.43677 13.6088C4.74518 13.5215 4.13468 13.27 3.60519 12.816C3.48612 12.714 3.44134 12.6221 3.50006 12.4576C3.62403 12.1106 3.71865 11.753 3.825 11.3997C3.83672 11.3608 3.83837 11.3176 3.88015 11.2869Z" fill="#FDFEFD"/>
</g>
<defs>
<clipPath id="clip0_21_548">
<rect width="16" height="16" fill="white"/>
</clipPath>
</defs>
</svg>
