<svg width="71" height="30" viewBox="0 0 71 30" fill="none" xmlns="http://www.w3.org/2000/svg">
<path d="M4.27 17.67H11.17V21H0.0700002V0.0599996H4.27V17.67ZM19.7195 21.27C18.1195 21.27 16.6795 20.92 15.3995 20.22C14.1195 19.5 13.1095 18.49 12.3695 17.19C11.6495 15.89 11.2895 14.39 11.2895 12.69C11.2895 10.99 11.6595 9.49 12.3995 8.19C13.1595 6.89 14.1895 5.89 15.4895 5.19C16.7895 4.47 18.2395 4.11 19.8395 4.11C21.4395 4.11 22.8895 4.47 24.1895 5.19C25.4895 5.89 26.5095 6.89 27.2495 8.19C28.0095 9.49 28.3895 10.99 28.3895 12.69C28.3895 14.39 27.9995 15.89 27.2195 17.19C26.4595 18.49 25.4195 19.5 24.0995 20.22C22.7995 20.92 21.3395 21.27 19.7195 21.27ZM19.7195 17.61C20.4795 17.61 21.1895 17.43 21.8495 17.07C22.5295 16.69 23.0695 16.13 23.4695 15.39C23.8695 14.65 24.0695 13.75 24.0695 12.69C24.0695 11.11 23.6495 9.9 22.8095 9.06C21.9895 8.2 20.9795 7.77 19.7795 7.77C18.5795 7.77 17.5695 8.2 16.7495 9.06C15.9495 9.9 15.5495 11.11 15.5495 12.69C15.5495 14.27 15.9395 15.49 16.7195 16.35C17.5195 17.19 18.5195 17.61 19.7195 17.61ZM36.4804 4.11C37.7204 4.11 38.8104 4.36 39.7504 4.86C40.6904 5.34 41.4304 5.97 41.9704 6.75V4.38H46.2004V21.12C46.2004 22.66 45.8904 24.03 45.2704 25.23C44.6504 26.45 43.7204 27.41 42.4804 28.11C41.2404 28.83 39.7404 29.19 37.9804 29.19C35.6204 29.19 33.6804 28.64 32.1604 27.54C30.6604 26.44 29.8104 24.94 29.6104 23.04H33.7804C34.0004 23.8 34.4704 24.4 35.1904 24.84C35.9304 25.3 36.8204 25.53 37.8604 25.53C39.0804 25.53 40.0704 25.16 40.8304 24.42C41.5904 23.7 41.9704 22.6 41.9704 21.12V18.54C41.4304 19.32 40.6804 19.97 39.7204 20.49C38.7804 21.01 37.7004 21.27 36.4804 21.27C35.0804 21.27 33.8004 20.91 32.6404 20.19C31.4804 19.47 30.5604 18.46 29.8804 17.16C29.2204 15.84 28.8904 14.33 28.8904 12.63C28.8904 10.95 29.2204 9.46 29.8804 8.16C30.5604 6.86 31.4704 5.86 32.6104 5.16C33.7704 4.46 35.0604 4.11 36.4804 4.11ZM41.9704 12.69C41.9704 11.67 41.7704 10.8 41.3704 10.08C40.9704 9.34 40.4304 8.78 39.7504 8.4C39.0704 8 38.3404 7.8 37.5604 7.8C36.7804 7.8 36.0604 7.99 35.4004 8.37C34.7404 8.75 34.2004 9.31 33.7804 10.05C33.3804 10.77 33.1804 11.63 33.1804 12.63C33.1804 13.63 33.3804 14.51 33.7804 15.27C34.2004 16.01 34.7404 16.58 35.4004 16.98C36.0804 17.38 36.8004 17.58 37.5604 17.58C38.3404 17.58 39.0704 17.39 39.7504 17.01C40.4304 16.61 40.9704 16.05 41.3704 15.33C41.7704 14.59 41.9704 13.71 41.9704 12.69ZM56.1824 21.27C54.5824 21.27 53.1424 20.92 51.8624 20.22C50.5824 19.5 49.5724 18.49 48.8324 17.19C48.1124 15.89 47.7524 14.39 47.7524 12.69C47.7524 10.99 48.1224 9.49 48.8624 8.19C49.6224 6.89 50.6524 5.89 51.9524 5.19C53.2524 4.47 54.7024 4.11 56.3024 4.11C57.9024 4.11 59.3524 4.47 60.6524 5.19C61.9524 5.89 62.9724 6.89 63.7124 8.19C64.4724 9.49 64.8524 10.99 64.8524 12.69C64.8524 14.39 64.4624 15.89 63.6824 17.19C62.9224 18.49 61.8824 19.5 60.5624 20.22C59.2624 20.92 57.8024 21.27 56.1824 21.27ZM56.1824 17.61C56.9424 17.61 57.6524 17.43 58.3124 17.07C58.9924 16.69 59.5324 16.13 59.9324 15.39C60.3324 14.65 60.5324 13.75 60.5324 12.69C60.5324 11.11 60.1124 9.9 59.2724 9.06C58.4524 8.2 57.4424 7.77 56.2424 7.77C55.0424 7.77 54.0324 8.2 53.2124 9.06C52.4124 9.9 52.0124 11.11 52.0124 12.69C52.0124 14.27 52.4024 15.49 53.1824 16.35C53.9824 17.19 54.9824 17.61 56.1824 17.61Z" fill="white"/>
<path d="M68.2933 21.21C67.5333 21.21 66.9033 20.98 66.4033 20.52C65.9233 20.04 65.6833 19.45 65.6833 18.75C65.6833 18.05 65.9233 17.47 66.4033 17.01C66.9033 16.53 67.5333 16.29 68.2933 16.29C69.0333 16.29 69.6433 16.53 70.1233 17.01C70.6033 17.47 70.8433 18.05 70.8433 18.75C70.8433 19.45 70.6033 20.04 70.1233 20.52C69.6433 20.98 69.0333 21.21 68.2933 21.21Z" fill="#1787FC"/>
</svg>
