<svg width="25" height="25" viewBox="0 0 25 25" fill="none" xmlns="http://www.w3.org/2000/svg">
<circle opacity="0.1" cx="12.5" cy="12.5" r="12.5" fill="#0BAFFF"/>
<path d="M12.4644 6.6725L11.0299 10.0118H9.59535C9.35726 10.0118 9.12512 10.0296 8.89893 10.0773L9.49416 8.64869L9.51797 8.59512L9.55369 8.49988C9.57155 8.45821 9.58345 8.4225 9.60131 8.39274C10.2918 6.79155 11.0656 6.29155 12.4644 6.6725Z" fill="#0BAFFF"/>
<path d="M16.506 10.1726L16.4941 10.1667C16.137 10.0655 15.7739 10.0119 15.4048 10.0119H11.6786L13.0179 6.89881L13.0358 6.85715C13.1191 6.88691 13.2084 6.92858 13.2977 6.95834L14.6132 7.51191C15.3453 7.81548 15.8572 8.13096 16.1727 8.51191C16.2263 8.58334 16.2739 8.64881 16.3215 8.72619C16.3751 8.80953 16.4167 8.89286 16.4406 8.98215C16.4644 9.03572 16.4822 9.08334 16.4941 9.13691C16.5834 9.44048 16.5894 9.78572 16.506 10.1726Z" fill="#0BAFFF"/>
<path d="M16.2442 11.0237C15.9763 10.9463 15.6966 10.9046 15.4049 10.9046H9.59537C9.19061 10.9046 8.80966 10.982 8.45252 11.1368C7.4168 11.5832 6.69061 12.613 6.69061 13.8094V14.9701C6.69061 15.113 6.70252 15.2499 6.72037 15.3927C6.85133 17.2856 7.86323 18.2975 9.75609 18.4225C9.89299 18.4403 10.0299 18.4523 10.1787 18.4523H14.8216C17.0239 18.4523 18.1847 17.4046 18.2978 15.3213C18.3037 15.2082 18.3097 15.0892 18.3097 14.9701V13.8094C18.3097 12.4939 17.4347 11.3868 16.2442 11.0237ZM13.9882 14.9939H12.9466V16.0713C12.9466 16.3153 12.7442 16.5177 12.5001 16.5177C12.2561 16.5177 12.0537 16.3153 12.0537 16.0713V14.9939H11.012C10.768 14.9939 10.5656 14.7975 10.5656 14.5475C10.5656 14.3034 10.768 14.1011 11.012 14.1011H12.0537V13.0951C12.0537 12.8511 12.2561 12.6487 12.5001 12.6487C12.7442 12.6487 12.9466 12.8511 12.9466 13.0951V14.1011H13.9882C14.2323 14.1011 14.4347 14.3034 14.4347 14.5475C14.4347 14.7975 14.2323 14.9939 13.9882 14.9939Z" fill="#0BAFFF"/>
</svg>
