<svg width="14" height="14" viewBox="0 0 14 14" fill="none" xmlns="http://www.w3.org/2000/svg">
<path d="M11.6492 1.02084H9.93417C9.19333 1.02084 8.75 1.46418 8.75 2.20501V3.92001C8.75 4.66084 9.19333 5.10418 9.93417 5.10418H11.6492C12.39 5.10418 12.8333 4.66084 12.8333 3.92001V2.20501C12.8333 1.46418 12.39 1.02084 11.6492 1.02084ZM11.7775 2.95168C11.7075 3.02168 11.6142 3.05668 11.5208 3.05668C11.4275 3.05668 11.3342 3.02168 11.2642 2.95168L11.1592 2.84668V4.15334C11.1592 4.35751 10.9958 4.52084 10.7917 4.52084C10.5875 4.52084 10.4242 4.35751 10.4242 4.15334V2.84668L10.3192 2.95168C10.1792 3.09168 9.94583 3.09168 9.80583 2.95168C9.66583 2.81168 9.66583 2.57834 9.80583 2.43834L10.535 1.70918C10.5642 1.68001 10.605 1.65668 10.6458 1.63918C10.6575 1.63334 10.6692 1.63334 10.6808 1.62751C10.71 1.61584 10.7392 1.61001 10.7742 1.61001C10.7858 1.61001 10.7975 1.61001 10.8092 1.61001C10.85 1.61001 10.885 1.61584 10.9258 1.63334C10.9317 1.63334 10.9317 1.63334 10.9375 1.63334C10.9783 1.65084 11.0133 1.67418 11.0425 1.70334C11.0483 1.70918 11.0483 1.70918 11.0542 1.70918L11.7833 2.43834C11.9233 2.57834 11.9233 2.81168 11.7775 2.95168Z" fill="#F79E1B"/>
<path d="M1.16666 6.68499V9.60166C1.16666 10.9375 2.24583 12.0167 3.58166 12.0167H10.4125C11.7483 12.0167 12.8333 10.9317 12.8333 9.59582V6.68499C12.8333 6.29416 12.5183 5.97916 12.1275 5.97916H1.8725C1.48166 5.97916 1.16666 6.29416 1.16666 6.68499ZM4.66666 10.0625H3.5C3.26083 10.0625 3.0625 9.86416 3.0625 9.62499C3.0625 9.38582 3.26083 9.18749 3.5 9.18749H4.66666C4.90583 9.18749 5.10416 9.38582 5.10416 9.62499C5.10416 9.86416 4.90583 10.0625 4.66666 10.0625ZM8.45833 10.0625H6.125C5.88583 10.0625 5.6875 9.86416 5.6875 9.62499C5.6875 9.38582 5.88583 9.18749 6.125 9.18749H8.45833C8.6975 9.18749 8.89583 9.38582 8.89583 9.62499C8.89583 9.86416 8.6975 10.0625 8.45833 10.0625Z" fill="#F79E1B"/>
<path d="M7.875 2.68911V4.39828C7.875 4.78911 7.56 5.10411 7.16916 5.10411H1.8725C1.47583 5.10411 1.16666 4.77744 1.16666 4.38661C1.1725 3.72744 1.435 3.12661 1.8725 2.68911C2.31 2.25161 2.91666 1.98328 3.58166 1.98328H7.16916C7.56 1.98328 7.875 2.29828 7.875 2.68911Z" fill="#F79E1B"/>
</svg>
